<?xml version="1.0" encoding="UTF-8"?>
<svg id="Layer_2" data-name="Layer 2" xmlns="http://www.w3.org/2000/svg" viewBox="0 0 896 295.85">
  <g id="Layer_1-2" data-name="Layer 1">
    <g>
      <path d="M20.13,2.02c14.59,0,24.08,3.43,24.08,14.68,0,8-4.66,12.66-13.27,14.15v.18c10.02,1.41,16.35,6.77,16.35,15.12,0,13.97-11.69,17.4-27.6,17.4H0v-2.55h7.47V4.57H0v-2.55h20.13ZM16.7,30.5h2.28c11.78,0,15.73-4.04,15.73-13.53s-4.04-12.39-15.2-12.39h-2.81v25.93ZM16.7,60.99h4.13c12.3,0,16.26-3.52,16.26-14.41,0-9.76-4.04-13.8-15.73-13.8h-4.66v28.21Z"/>
      <path d="M67.68,39.81v21.44h9.32v2.28h-24.34v-2.28h6.59V23.99h-6.59v-2.28h15.03v8.44c1.76-6.24,5.8-9.32,10.81-9.32,5.45,0,8.88,3.34,8.88,8,0,5.1-2.72,6.85-5.62,6.85s-4.92-2.02-4.92-5.54c0-.79.09-1.58.26-2.37h2.72c.18-.53.18-1.05.18-1.41,0-1.85-1.41-2.2-2.81-2.2-5.1,0-9.49,7.73-9.49,15.64Z"/>
      <path d="M105.74,21.71v39.55h6.68v2.28h-21.71v-2.28h6.59V23.99h-6.59v-2.28h15.03ZM100.82,2.11c3.08,0,5.36,1.49,5.36,5.19,0,3.16-1.85,5.36-5.27,5.36-4.04,0-5.36-2.72-5.36-5.36,0-2.81,1.85-5.19,5.27-5.19Z"/>
      <path d="M131.32,21.71v8.26c2.02-4.31,6.59-9.14,15.47-9.14,8.09,0,13.01,4.04,13.01,14.68v25.75h6.68v2.28h-21.71v-2.28h6.59v-27.16c0-6.5-1.58-10.11-7.03-10.11-6.85,0-13.01,5.8-13.01,13.97v23.29h6.68v2.28h-21.71v-2.28h6.59V23.99h-6.59v-2.28h15.03Z"/>
      <path d="M206.73,16.7c-.18-1.23-.88-1.93-2.2-1.93-1.67,0-4.04,2.2-4.04,7.29,0,.88.09,1.93.26,3.08,2.37,2.55,3.87,5.45,3.87,10.02,0,9.05-5.98,14.94-15.56,14.94-2.2,0-4.39-.26-6.15-.62-3.25,2.2-5.45,4.22-5.45,5.27,0,.97.7,1.41,3.16,1.41h12.04c10.11,0,17.58,2.11,17.58,12.92,0,9.49-5.98,16.43-23.9,16.43-12.13,0-18.19-3.78-18.19-10.28,0-4.75,3.52-6.42,6.5-7.03l2.28,1.85c-.7,1.41-.97,3.16-.97,4.39,0,5.1,3.6,8.79,12.92,8.79,11.25,0,16.96-4.66,16.96-11.34,0-5.62-3.95-7.65-12.74-7.65h-11.34c-6.24,0-8.88-2.46-8.88-5.98,0-2.99,2.46-5.54,7.56-9.49-5.62-2.2-7.73-6.94-7.73-13.01,0-7.65,5.1-14.94,16.79-14.94,3.52,0,6.59.88,9.23,2.72-.09-.62-.09-1.14-.09-1.76,0-5.54,3.08-10.02,8.61-10.02,3.34,0,5.8,2.02,5.8,5.27,0,2.28-1.67,4.13-4.22,4.13-2.02,0-3.52-1.32-3.95-2.37l1.85-2.11ZM188.98,47.81c4.31,0,7.29-2.72,7.29-12.3s-2.46-12.57-7.38-12.57c-4.57,0-7.65,2.9-7.65,12.66s2.81,12.22,7.73,12.22Z"/>
      <path d="M229.5,21.71v39.55h6.68v2.28h-21.71v-2.28h6.59V23.99h-6.59v-2.28h15.03ZM224.58,2.11c3.08,0,5.36,1.49,5.36,5.19,0,3.16-1.85,5.36-5.27,5.36-4.04,0-5.36-2.72-5.36-5.36,0-2.81,1.85-5.19,5.27-5.19Z"/>
      <path d="M255.08,21.71v8.26c2.02-4.31,6.59-9.14,15.47-9.14,8.09,0,13.01,4.04,13.01,14.68v25.75h6.68v2.28h-21.71v-2.28h6.59v-27.16c0-6.5-1.58-10.11-7.03-10.11-6.85,0-13.01,5.8-13.01,13.97v23.29h6.68v2.28h-21.71v-2.28h6.59V23.99h-6.59v-2.28h15.03Z"/>
      <path d="M330.49,16.7c-.18-1.23-.88-1.93-2.2-1.93-1.67,0-4.04,2.2-4.04,7.29,0,.88.09,1.93.26,3.08,2.37,2.55,3.87,5.45,3.87,10.02,0,9.05-5.98,14.94-15.56,14.94-2.2,0-4.39-.26-6.15-.62-3.25,2.2-5.45,4.22-5.45,5.27,0,.97.7,1.41,3.16,1.41h12.04c10.11,0,17.58,2.11,17.58,12.92,0,9.49-5.98,16.43-23.9,16.43-12.13,0-18.19-3.78-18.19-10.28,0-4.75,3.52-6.42,6.5-7.03l2.28,1.85c-.7,1.41-.97,3.16-.97,4.39,0,5.1,3.6,8.79,12.92,8.79,11.25,0,16.96-4.66,16.96-11.34,0-5.62-3.95-7.65-12.74-7.65h-11.34c-6.24,0-8.88-2.46-8.88-5.98,0-2.99,2.46-5.54,7.56-9.49-5.62-2.2-7.73-6.94-7.73-13.01,0-7.65,5.1-14.94,16.79-14.94,3.52,0,6.59.88,9.23,2.72-.09-.62-.09-1.14-.09-1.76,0-5.54,3.08-10.02,8.61-10.02,3.34,0,5.8,2.02,5.8,5.27,0,2.28-1.67,4.13-4.22,4.13-2.02,0-3.52-1.32-3.95-2.37l1.85-2.11ZM312.74,47.81c4.31,0,7.29-2.72,7.29-12.3s-2.46-12.57-7.38-12.57c-4.57,0-7.65,2.9-7.65,12.66s2.81,12.22,7.73,12.22Z"/>
      <path d="M375.15,50.18c-2.46,0-5.01-.35-6.85-.7-3.16,2.02-4.31,3.25-4.31,4.13,0,.79.97,1.23,5.01,1.23h9.76c10.02,0,19.33,2.28,19.33,13.97,0,9.67-6.77,16.7-24.52,16.7-14.5,0-20.83-3.69-20.83-9.67,0-4.48,3.69-6.15,6.68-7.03l4.57,2.28c-.62,1.76-.79,3.34-.79,4.75,0,3.69,2.28,7.38,11.69,7.38s14.94-3.87,14.94-9.4c0-4.57-2.46-6.33-11.6-6.33h-9.23c-9.4,0-12.13-3.78-12.13-7.56,0-4.57,2.99-7.12,8.96-11.16-6.24-2.11-9.14-6.24-9.14-13.18,0-8.09,5.54-14.76,18.37-14.76,2.99,0,5.89.53,8.52,1.58-.44-6.94,3.16-12.92,10.02-12.92,3.87,0,7.03,2.28,7.03,6.42,0,2.99-1.93,5.54-5.19,5.54-2.46,0-4.22-1.58-4.75-2.9l1.93-2.37c0-1.32-.7-2.28-2.2-2.28-2.11,0-4.75,2.28-4.31,9.76,3.78,2.37,6.33,6.15,6.33,11.51,0,9.76-6.85,15.03-17.31,15.03ZM374.8,47.81c3.16,0,4.75-1.67,4.75-12.22s-1.49-12.66-4.66-12.66-5.1,1.85-5.1,12.74c0,10.11,1.58,12.13,5.01,12.13Z"/>
      <path d="M419.89,39.37v21.88h7.03v2.28h-26.63v-2.28h5.27V23.99h-5.27v-2.28h19.6v8c1.85-6.24,6.33-8.88,11.51-8.88s9.14,3.52,9.14,9.67c0,5.01-2.55,7.82-6.77,7.82-3.78,0-6.68-1.85-6.68-6.94,0-.88.09-1.76.26-2.64h2.72c.44-.97.53-1.58.53-2.2,0-1.58-1.14-2.02-2.2-2.02-4.48,0-8.52,7.03-8.52,14.85Z"/>
      <path d="M464.72,20.83c12.74,0,18.63,6.94,18.11,20.04h-25.4v2.9c0,10.9,2.11,17.4,10.81,17.4,6.42,0,10.37-3.69,12.31-10.46l2.28.35c-1.85,7.47-6.42,13.36-18.63,13.36-14.94,0-21.79-8.88-21.79-21.62,0-15.2,9.84-21.97,22.32-21.97ZM469.02,38.49c0-11.95-.79-15.56-5.27-15.56-4.22,0-6.33,3.25-6.33,15.56h11.6Z"/>
      <path d="M510.43,42.54v-6.42c0-10.37-1.23-13.18-5.71-13.18-2.9,0-4.74,1.14-4.74,3.16,0,.62.09,1.32.35,2.02h2.28c.44,1.14.7,2.28.7,3.78,0,3.95-3.07,6.42-7.03,6.42-4.83,0-6.85-2.81-6.85-6.85,0-7.12,6.59-10.63,17.58-10.63,13.01,0,17.75,3.87,17.75,16.61v17.05c0,3.78,1.05,4.92,2.55,4.92,1.58,0,2.64-1.41,3.25-8.44l2.02.18c-.44,10.11-3.52,13.27-10.72,13.27-6.5,0-10.02-2.02-10.98-6.15-1.85,4.13-5.01,6.15-10.73,6.15-6.33,0-12.83-2.02-12.83-10.55,0-9.14,7.64-11.34,19.86-11.34h3.25ZM510.43,51.76v-7.03h-1.32c-5.01,0-7.03,2.46-7.03,8.7,0,5.62,1.05,7.03,3.25,7.03,2.46,0,5.1-3.16,5.1-8.7Z"/>
      <path d="M537.24,23.99h-5.27v-2.28h5.27v-11.34l14.41-3.6v14.94h11.6v2.28h-11.6v28.74c0,5.01.87,7.65,4.3,7.65,3.95,0,6.41-3.43,7.21-9.4l2.11.26c-.79,6.85-3.61,13.18-13.97,13.18-8.18,0-14.06-2.55-14.06-12.66v-27.77Z"/>
      <path d="M586.46,48.95h1.93c2.64,9.67,7.73,12.74,14.85,12.74,6.51,0,9.05-2.55,9.05-5.71,0-4.39-4.3-5.27-10.81-6.94-7.03-1.76-14.85-4.13-14.85-13.8,0-8.52,6.06-14.41,15.29-14.41,3.78,0,6.33.88,8.79,2.02.88.35,1.5.7,2.46.7,1.14,0,1.67-.79,2.02-2.9h1.76v13.36h-1.84c-2.73-7.38-6.85-10.72-12.92-10.72-5.44,0-8.26,1.93-8.26,5.1,0,4.31,5.01,5.27,10.9,6.77,6.94,1.76,14.67,4.22,14.67,14.59,0,9.49-6.24,14.68-16.17,14.68-4.39,0-7.56-.97-10.81-2.64-.53-.35-1.23-.7-1.59-.7-1.05,0-1.76.7-2.63,3.34h-1.85v-15.47Z"/>
      <path d="M626.46,23.99h-5.27v-2.28h5.27v-11.34l14.41-3.6v14.94h11.6v2.28h-11.6v28.74c0,5.01.88,7.65,4.31,7.65,3.96,0,6.42-3.43,7.21-9.4l2.11.26c-.79,6.85-3.6,13.18-13.98,13.18-8.17,0-14.06-2.55-14.06-12.66v-27.77Z"/>
      <path d="M678.84,20.83c14.15,0,21.53,6.85,21.53,21.27s-7.12,22.32-21.97,22.32-21.97-7.91-21.97-21.62,8.17-21.97,22.41-21.97ZM678.58,22.94c-6.24,0-7.12,6.68-7.12,19.69s.87,19.69,7.12,19.69c5.89,0,6.85-5.36,6.85-20.04,0-12.57-.96-19.33-6.85-19.33Z"/>
      <path d="M723.14,39.37v21.88h7.03v2.28h-26.63v-2.28h5.27V23.99h-5.27v-2.28h19.6v8c1.84-6.24,6.33-8.88,11.51-8.88s9.14,3.52,9.14,9.67c0,5.01-2.55,7.82-6.77,7.82-3.78,0-6.68-1.85-6.68-6.94,0-.88.09-1.76.27-2.64h2.73c.44-.97.52-1.58.52-2.2,0-1.58-1.14-2.02-2.2-2.02-4.48,0-8.52,7.03-8.52,14.85Z"/>
      <path d="M765.25,21.71v39.55h5.36v2.28h-24.96v-2.28h5.27V23.99h-5.54v-2.28h19.86ZM757.51,0c4.83,0,7.82,2.46,7.82,7.38,0,4.22-2.37,7.47-8,7.47-6.33,0-7.91-4.04-7.91-7.47,0-3.87,2.28-7.38,8.09-7.38Z"/>
      <path d="M795.75,20.83c12.75,0,18.63,6.94,18.1,20.04h-25.4v2.9c0,10.9,2.11,17.4,10.81,17.4,6.42,0,10.37-3.69,12.3-10.46l2.28.35c-1.84,7.47-6.41,13.36-18.63,13.36-14.94,0-21.79-8.88-21.79-21.62,0-15.2,9.84-21.97,22.32-21.97ZM800.06,38.49c0-11.95-.79-15.56-5.27-15.56-4.22,0-6.33,3.25-6.33,15.56h11.6Z"/>
      <path d="M819.22,48.95h1.93c2.64,9.67,7.73,12.74,14.85,12.74,6.51,0,9.05-2.55,9.05-5.71,0-4.39-4.3-5.27-10.81-6.94-7.03-1.76-14.85-4.13-14.85-13.8,0-8.52,6.06-14.41,15.29-14.41,3.78,0,6.33.88,8.79,2.02.88.35,1.5.7,2.46.7,1.14,0,1.67-.79,2.02-2.9h1.76v13.36h-1.84c-2.73-7.38-6.85-10.72-12.92-10.72-5.44,0-8.26,1.93-8.26,5.1,0,4.31,5.01,5.27,10.9,6.77,6.94,1.76,14.67,4.22,14.67,14.59,0,9.49-6.24,14.68-16.17,14.68-4.39,0-7.56-.97-10.81-2.64-.53-.35-1.23-.7-1.59-.7-1.05,0-1.76.7-2.63,3.34h-1.85v-15.47Z"/>
      <path d="M388.12,128.63h-6.59v-2.28h6.59v-11.34l8.44-2.28v13.62h12.3v2.28h-12.3v28.91c0,5.19,1.32,7.38,5.89,7.38,4.83,0,6.94-3.34,7.73-9.32l2.02.26c-.79,6.85-3.34,13.18-12.74,13.18-6.59,0-11.34-2.55-11.34-10.46v-29.97Z"/>
      <path d="M436.29,125.47c12.3,0,19.51,6.77,19.51,21.53,0,13.62-7.21,22.06-19.86,22.06s-19.77-7.91-19.77-21.62,8.09-21.97,20.13-21.97ZM436.11,127.58c-8.96,0-10.72,8.7-10.72,19.25s1.85,20.13,10.72,20.13,10.46-8.26,10.46-19.95c0-10.46-1.76-19.42-10.46-19.42Z"/>
      <path d="M484.81,128.63h-6.59v-2.28h6.59v-11.34l8.44-2.28v13.62h12.3v2.28h-12.3v28.91c0,5.19,1.32,7.38,5.89,7.38,4.84,0,6.94-3.34,7.73-9.32l2.02.26c-.79,6.85-3.34,13.18-12.74,13.18-6.59,0-11.34-2.55-11.34-10.46v-29.97Z"/>
      <path d="M527.36,102.27v32.34c2.02-4.31,6.59-9.14,15.47-9.14,8.09,0,13.01,4.04,13.01,14.68v25.75h6.68v2.28h-21.71v-2.28h6.59v-26.63c0-7.29-1.58-10.63-7.12-10.63-6.76,0-12.92,5.8-12.92,13.97v23.29h6.68v2.28h-21.71v-2.28h6.59v-61.34h-6.59v-2.28h15.03Z"/>
      <path d="M587.48,125.47c11.08,0,16.61,6.77,16.08,20.04h-27.24v1.23c0,12.66,2.9,19.33,12.48,19.33,7.12,0,11.07-4.48,12.39-10.72l2.55.35c-1.5,7.21-5.89,13.36-17.05,13.36-13.53,0-19.6-8.52-19.6-21.36,0-15.38,8.7-22.23,20.39-22.23ZM594.77,143.13c.53-9.58-1.41-15.56-8.09-15.56s-9.67,5.54-10.28,15.56h18.37Z"/>
      <path d="M627.22,154.47h2.28c.53,7.91,7.21,11.69,14.24,11.69,7.38,0,10.46-2.9,10.46-7.91,0-5.62-5.45-6.68-11.42-7.73-7.03-1.23-14.76-2.55-14.76-11.78,0-7.29,5.71-13.27,14.5-13.27,3.7,0,5.89.79,8.62,2.02.61.26,1.84.62,2.46.62.87,0,1.05-.97,1.23-2.81h1.94v13.01h-2.2c-1.58-6.94-5.89-10.37-12.04-10.37-5.53,0-9.49,2.46-9.49,6.77,0,5.36,5.36,6.24,11.25,7.29,7.03,1.32,14.76,2.99,14.76,13.36,0,7.91-5.53,13.71-15.38,13.71-5.01,0-8.7-1.32-11.69-2.99-.52-.35-.96-.53-1.32-.53-.79,0-1.05.7-1.5,3.52h-1.93v-14.59Z"/>
      <path d="M673.8,146.47c0,13.36,3.69,19.51,11.95,19.51s11.34-6.42,12.21-11.6l2.55.44c-.96,5.27-3.69,14.24-16.78,14.24-12.22,0-19.16-7.56-19.16-21,0-15.12,8.53-22.59,21.01-22.59,9.41,0,14.68,4.31,14.68,11.16,0,4.48-2.29,6.42-5.36,6.42s-5.1-1.93-5.1-5.36c0-.88.09-2.02.44-3.25h2.37c.18-.7.27-1.41.27-2.02,0-3.08-2.11-4.83-6.77-4.83-8.53,0-12.3,5.89-12.3,18.89Z"/>
      <path d="M720.38,144.45v21.44h9.32v2.28h-24.35v-2.28h6.59v-37.26h-6.59v-2.28h15.03v8.44c1.76-6.24,5.8-9.32,10.81-9.32,5.45,0,8.87,3.34,8.87,8,0,5.1-2.72,6.85-5.62,6.85s-4.92-2.02-4.92-5.54c0-.79.09-1.58.27-2.37h2.73c.17-.53.17-1.05.17-1.41,0-1.85-1.41-2.2-2.81-2.2-5.09,0-9.49,7.73-9.49,15.64Z"/>
      <path d="M763.98,125.47c11.07,0,16.61,6.77,16.08,20.04h-27.24v1.23c0,12.66,2.9,19.33,12.48,19.33,7.12,0,11.07-4.48,12.39-10.72l2.55.35c-1.49,7.21-5.89,13.36-17.05,13.36-13.53,0-19.6-8.52-19.6-21.36,0-15.38,8.7-22.23,20.39-22.23ZM771.27,143.13c.53-9.58-1.41-15.56-8.09-15.56s-9.67,5.54-10.28,15.56h18.37Z"/>
      <path d="M806.34,125.47c11.08,0,16.61,6.77,16.08,20.04h-27.24v1.23c0,12.66,2.9,19.33,12.48,19.33,7.12,0,11.07-4.48,12.39-10.72l2.55.35c-1.5,7.21-5.89,13.36-17.05,13.36-13.53,0-19.6-8.52-19.6-21.36,0-15.38,8.7-22.23,20.39-22.23ZM813.64,143.13c.53-9.58-1.41-15.56-8.09-15.56s-9.67,5.54-10.28,15.56h18.37Z"/>
      <path d="M842.39,126.35v8.26c2.02-4.31,6.59-9.14,15.47-9.14,8.09,0,13.01,4.04,13.01,14.68v25.75h6.68v2.28h-21.71v-2.28h6.59v-27.16c0-6.5-1.59-10.11-7.03-10.11-6.86,0-13.01,5.8-13.01,13.97v23.29h6.68v2.28h-21.71v-2.28h6.59v-37.26h-6.59v-2.28h15.03Z"/>
      <path d="M884.58,180.14c6.76-6.07,7.12-9.49,7.12-11.69,0-1.85-.7-2.72-1.84-2.9l-2.99,2.81c-2.02-.7-4.3-2.72-4.3-5.98,0-3.69,2.9-5.89,5.98-5.89,5.45,0,7.47,4.31,7.47,9.14,0,5.98-2.9,10.63-10.01,16.17l-1.41-1.67Z"/>
      <path d="M35.14,256.52c0-13.54,8.29-28.46,24.59-28.46,11.42,0,16.58,6.72,16.58,17.13,0,13.35-8.29,28.65-24.5,28.65-11.33,0-16.67-6.82-16.67-17.31ZM67.47,243.81c0-8.66-2.3-13.54-9.03-13.54-11.33,0-14.64,15.66-14.64,27.82,0,7.92,2.49,13.26,9.03,13.26,12.34,0,14.64-16.3,14.64-27.54Z"/>
      <path d="M128.89,268.13c-2.21,3.04-5.34,5.71-9.95,5.71-5.53,0-8.38-2.86-8.38-7.74,0-6.26,4.33-18.33,6.08-26.8,1.29-5.8.09-7.83-3.04-7.83-7.46,0-14.83,10.77-17.96,20.91-1.84,6.08-2.86,12.99-3.59,20.17-2.86-.09-6.45.37-9.03.92l3.5-16.49,3.13-25.6h-7l.28-2.4h15.2l-3.77,16.3.55.28c4.33-8.38,10.68-17.5,19.99-17.5,8.01,0,11.33,5.62,8.93,15.19-1.75,6.72-3.68,14.18-4.97,19.53-.28,1.1-.64,3.04-.64,4.7,0,2.3,1.01,3.13,2.67,3.13,2.49,0,4.42-1.84,6.17-4.05l1.84,1.57Z"/>
      <path d="M170.05,258.46c-2.76,9.95-10.32,15.38-20.08,15.38-10.41,0-16.03-6.45-16.03-17.31,0-14.55,9.95-28.46,24.31-28.46,7.37,0,12.06,3.5,12.06,10.41,0,9.67-9.21,12.43-16.86,14-3.13.65-7.92,1.2-10.68,1.29v2.58c0,9.95,2.86,14,9.86,14,5.16,0,11.42-2.39,14.92-12.61l2.49.74ZM148.31,250.63c7.92-1.66,14-4.7,14-13.08,0-5.06-2.12-7.28-5.62-7.28-5.62,0-12.07,7-13.72,20.91,1.57-.09,3.5-.18,5.34-.55Z"/>
      <path d="M186.71,294.74l.46-2.4h5.62l9.86-60.97h-7.37l.46-2.4h15.01l-2.76,11.97.46.09c3.68-7.27,10.13-12.98,18.23-12.98s12.16,5.98,12.16,15.93c0,13.17-7.74,29.84-22.66,29.84-5.89,0-9.86-2.86-11.6-6.36l-3.87,24.86h11.05l-.46,2.4h-24.59ZM229.99,243.72c0-6.81-.83-11.88-6.72-11.88-9.21,0-16.58,14.65-16.58,27.35,0,6.63,1.47,11.7,8.93,11.7,10.41,0,14.37-13.63,14.37-27.17Z"/>
      <path d="M290.86,267.95c-1.75,2.85-4.79,5.89-9.3,5.89-7.55,0-8.84-5.53-6.81-12.53l-.46-.09c-2.95,6.17-8.2,12.62-17.04,12.62-8.38,0-12.99-5.89-12.99-15.93,0-12.43,7.46-29.84,22.56-29.84,5.34,0,9.21,2.12,11.6,7.28l1.75-6.27c2.76,0,4.6-.18,7.46-.55-2.3,11.33-5.06,25.6-6.72,36.84-.46,3.13,0,5.15,2.67,5.15,1.84,0,3.41-1.19,5.43-4.05l1.84,1.48ZM276.31,242.62c0-8.2-3.32-11.7-8.66-11.7-11.14,0-14.55,14.92-14.55,26.99,0,7.92,1.57,12.06,7.09,12.06,9.76,0,16.12-16.76,16.12-27.35Z"/>
      <path d="M300.34,287.93c-1.47,2.76.09,5.53,5.71,5.53,8.84,0,12.25-5.34,15.84-17.13.92-3.13,2.76-11.51,3.68-15.1l-.46-.09c-2.95,6.26-8.47,10.87-15.93,10.87-9.03,0-13.63-5.8-13.63-15.93,0-12.34,7.18-28,22.38-28,5.34,0,9.12,2.12,11.51,7.28l1.75-6.27c2.76,0,4.7-.18,7.55-.55-2.39,11.33-6.08,33.06-8.29,44.39-3.32,17.23-12.89,22.94-24.77,22.94-8.29,0-13.45-3.04-13.45-8.75,0-3.96,2.4-6.91,6.81-6.91,3.04,0,5.8,2.03,4.97,7.28l-3.68.46ZM327.42,242.62c0-8.75-3.41-11.7-8.75-11.7-11.05,0-14.28,13.45-14.28,25.24,0,7.83,1.75,11.88,7,11.88,9.95,0,16.03-14.92,16.03-25.42Z"/>
      <path d="M380.83,258.46c-2.76,9.95-10.32,15.38-20.08,15.38-10.41,0-16.03-6.45-16.03-17.31,0-14.55,9.95-28.46,24.31-28.46,7.37,0,12.06,3.5,12.06,10.41,0,9.67-9.21,12.43-16.86,14-3.13.65-7.92,1.2-10.68,1.29v2.58c0,9.95,2.86,14,9.86,14,5.16,0,11.42-2.39,14.92-12.61l2.49.74ZM359.09,250.63c7.92-1.66,14-4.7,14-13.08,0-5.06-2.12-7.28-5.62-7.28-5.62,0-12.07,7-13.72,20.91,1.57-.09,3.5-.18,5.34-.55Z"/>
      <path d="M451.18,267.95c-1.75,2.85-4.79,5.89-9.3,5.89-7.55,0-8.84-5.53-6.81-12.53l-.46-.09c-2.95,6.17-8.2,12.62-17.04,12.62-8.38,0-12.99-5.89-12.99-15.93,0-12.43,7.46-29.84,22.56-29.84,5.34,0,9.21,2.12,11.6,7.28l1.75-6.27c2.76,0,4.6-.18,7.46-.55-2.3,11.33-5.06,25.6-6.72,36.84-.46,3.13,0,5.15,2.67,5.15,1.84,0,3.41-1.19,5.43-4.05l1.84,1.48ZM436.63,242.62c0-8.2-3.32-11.7-8.66-11.7-11.14,0-14.55,14.92-14.55,26.99,0,7.92,1.57,12.06,7.09,12.06,9.76,0,16.12-16.76,16.12-27.35Z"/>
      <path d="M479.81,266.2c-2.86,4.32-7.19,7.64-12.25,7.64-6.91,0-10.41-3.78-10.41-9.3,0-3.23.74-6.36,1.84-11.97l4.14-21.18h-6.63l.46-2.4h6.54l1.84-11.33,8.66-2.31-2.21,13.63h9.67l-.46,2.4h-9.58l-5.71,30.94c-1.01,5.44.09,7.92,3.69,7.92s5.62-1.93,8.38-5.62l2.03,1.57Z"/>
      <path d="M549.25,267.95c-1.75,2.85-4.79,5.89-9.3,5.89-7.55,0-8.84-5.53-6.81-12.53l-.46-.09c-2.95,6.17-8.2,12.62-17.04,12.62-8.38,0-12.99-5.89-12.99-15.93,0-12.43,7.46-29.84,22.56-29.84,5.34,0,9.21,2.12,11.6,7.28l1.75-6.27c2.76,0,4.61-.18,7.46-.55-2.3,11.33-5.06,25.6-6.72,36.84-.46,3.13,0,5.15,2.67,5.15,1.84,0,3.4-1.19,5.43-4.05l1.84,1.48ZM534.7,242.62c0-8.2-3.32-11.7-8.66-11.7-11.14,0-14.55,14.92-14.55,26.99,0,7.92,1.57,12.06,7.09,12.06,9.76,0,16.12-16.76,16.12-27.35Z"/>
      <path d="M598.14,266.2c-2.85,4.32-7.18,7.64-12.25,7.64-6.91,0-10.41-3.78-10.41-9.3,0-3.23.74-6.36,1.84-11.97l4.14-21.18h-6.63l.46-2.4h6.54l1.84-11.33,8.66-2.31-2.21,13.63h9.67l-.46,2.4h-9.58l-5.71,30.94c-1.01,5.44.09,7.92,3.68,7.92s5.62-1.93,8.38-5.62l2.02,1.57Z"/>
      <path d="M622.64,267.85c-2.58,3.87-5.43,5.99-9.58,5.99-5.53,0-8.57-2.49-8.57-7.92,0-1.66.46-5.06,1.48-9.86,1.66-7.55,4.42-19.43,5.62-24.68h-7.37l.37-2.4h15.29l-7.18,34.72c-1.11,5.25-.28,6.91,2.4,6.91,1.93,0,3.32-1.1,5.62-4.23l1.93,1.47ZM611.68,214.8c0-3.23,1.93-6.26,6.08-6.26,2.85,0,4.88,1.2,4.88,4.7s-1.93,6.36-6.08,6.36c-3.59,0-4.88-1.93-4.88-4.79Z"/>
      <path d="M697.97,268.13c-2.21,3.4-5.62,5.71-9.77,5.71-5.62,0-8.47-2.67-8.47-7.64,0-6.63,4.23-17.5,6.26-26.52,1.29-6.27-.28-8.29-3.59-8.29-6.17,0-11.6,10.31-15.38,21.09-1.84,5.25-3.4,13.45-4.51,20.17-2.67-.09-5.89.46-8.56.83,2.3-9.48,6.45-27.9,7.55-33.8,1.11-6.27.18-8.29-2.95-8.29-7.46,0-13.35,11.24-16.58,20.72-2.12,6.26-3.04,12.99-3.87,20.45-2.85-.09-6.45.37-9.03.92l3.78-17.13,3.32-24.96h-7.37l.37-2.4h15.29l-3.87,16.21.55.28c3.96-8.47,9.12-17.4,18.97-17.4,5.89,0,10.96,3.77,5.89,16.67l.65.27c5.89-12.71,10.77-16.94,17.13-16.94,8.47,0,11.69,6.26,9.3,15.75-1.84,7.19-4.14,14.37-5.34,20.17-.83,4.05-.55,6.54,2.3,6.54,1.75,0,3.68-.64,6.08-3.96l1.84,1.57Z"/>
      <path d="M739.13,258.46c-2.76,9.95-10.32,15.38-20.08,15.38-10.41,0-16.02-6.45-16.02-17.31,0-14.55,9.95-28.46,24.31-28.46,7.37,0,12.06,3.5,12.06,10.41,0,9.67-9.21,12.43-16.85,14-3.13.65-7.92,1.2-10.68,1.29v2.58c0,9.95,2.85,14,9.85,14,5.16,0,11.42-2.39,14.92-12.61l2.49.74ZM717.39,250.63c7.92-1.66,14-4.7,14-13.08,0-5.06-2.12-7.28-5.62-7.28-5.62,0-12.07,7-13.72,20.91,1.57-.09,3.5-.18,5.34-.55Z"/>
      <path d="M756.9,265.73c0,4.79-3.69,8.01-7.92,8.01s-5.62-2.76-5.62-5.43c0-4.79,3.68-7.83,7.83-7.83,3.4,0,5.71,1.75,5.71,5.25Z"/>
    </g>
  </g>
</svg>